<svg width="1065" height="801" viewBox="0 0 1065 801" fill="none" xmlns="http://www.w3.org/2000/svg">
<path fill-rule="evenodd" clip-rule="evenodd" d="M702.988 385.391C634.965 225.606 459.382 129.477 300.525 73.2924C221.132 45.2126 145.993 27.1363 90.6998 16.0802C63.0544 10.5524 40.3732 6.78005 24.6053 4.38991C16.7216 3.19485 10.5663 2.34537 6.38342 1.7948C4.29187 1.51952 2.69348 1.31897 1.61865 1.18732C1.08118 1.12149 0.674683 1.07289 0.402832 1.04078L0.0966797 1.0049L0.0201416 0.996073L0.0012207 0.993904C-0.00280762 0.993439 -0.00476074 0.993222 0.108398 -0.00035882C0.221558 -0.99394 0.223999 -0.993664 0.228516 -0.99314L0.248413 -0.990853L0.327026 -0.981782L0.637451 -0.945412C0.912109 -0.912974 1.32153 -0.864029 1.86182 -0.797848C2.94238 -0.665487 4.54675 -0.464182 6.64441 -0.188097C10.8395 0.364072 17.0077 1.21537 24.9052 2.4125C40.7 4.80673 63.4124 8.58437 91.092 14.1191C146.449 25.188 221.685 43.2867 301.192 71.4069C460.135 127.622 636.452 223.994 704.829 384.608C776.463 552.719 952.104 656.34 1110.07 717.943C1189.03 748.733 1263.5 769.001 1318.24 781.572C1345.61 787.857 1368.04 792.217 1383.63 795.005C1391.42 796.4 1397.5 797.401 1401.64 798.054C1403.7 798.38 1405.28 798.619 1406.34 798.776C1406.87 798.855 1407.28 798.913 1407.54 798.952C1407.68 798.971 1407.78 798.986 1407.85 798.995L1407.92 799.006L1407.94 799.008C1407.94 799.009 1407.95 799.009 1407.81 800C1407.67 800.99 1407.67 800.99 1407.66 800.989L1407.64 800.986L1407.57 800.975C1407.5 800.966 1407.4 800.951 1407.26 800.932C1406.99 800.893 1406.58 800.834 1406.05 800.755C1404.98 800.596 1403.4 800.356 1401.33 800.029C1397.18 799.375 1391.08 798.371 1383.28 796.974C1367.66 794.181 1345.2 789.814 1317.79 783.521C1262.99 770.935 1188.41 750.641 1109.35 719.806C951.263 658.159 774.954 554.28 702.988 385.392L703.908 385L702.988 385.391ZM352.137 70.1547C503.606 123.852 671.014 215.655 735.888 368.091C804.453 529.33 972.537 628.534 1123.24 687.419C1198.63 716.872 1269.73 736.263 1321.98 748.291C1348.1 754.306 1369.52 758.479 1384.41 761.15C1391.86 762.485 1397.67 763.445 1401.62 764.071C1403.6 764.384 1405.11 764.614 1406.12 764.765C1406.63 764.841 1407.02 764.897 1407.28 764.934C1407.41 764.953 1407.51 764.967 1407.57 764.976L1407.64 764.986L1407.66 764.989C1407.67 764.99 1407.67 764.99 1407.81 764C1407.95 763.009 1407.95 763.009 1407.94 763.008L1407.92 763.006L1407.85 762.996C1407.79 762.987 1407.69 762.973 1407.56 762.955C1407.31 762.918 1406.92 762.862 1406.42 762.787C1405.41 762.636 1403.9 762.408 1401.93 762.096C1397.99 761.472 1392.19 760.514 1384.76 759.182C1369.9 756.516 1348.52 752.348 1322.43 746.342C1270.24 734.33 1199.24 714.965 1123.97 685.556C973.38 626.716 805.963 527.77 737.729 367.308C672.503 214.044 504.361 121.998 352.805 68.2696C276.992 41.3932 205.253 24.0788 152.469 13.4833C126.076 8.18528 104.42 4.56662 89.3593 2.27218C81.829 1.12495 75.9474 0.308754 71.9471 -0.220788C69.947 -0.485559 68.4172 -0.678669 67.3867 -0.805665C66.8715 -0.869162 66.4811 -0.916132 66.2191 -0.947266L65.923 -0.982177L65.8481 -0.990888L65.8291 -0.993086C65.8247 -0.99359 65.8224 -0.993856 65.7085 -0.00035882C65.5946 0.993138 65.5964 0.993345 65.6003 0.99379L65.6183 0.995868L65.6912 1.00434L65.983 1.03875C66.2422 1.06955 66.6298 1.11618 67.1421 1.17932C68.1667 1.3056 69.6907 1.49795 71.6847 1.76192C75.6727 2.28984 81.5414 3.10421 89.0581 4.24937C104.092 6.53969 125.717 10.1531 152.076 15.4441C204.795 26.0268 276.438 43.3186 352.137 70.1547ZM768.688 350.791C707.014 205.654 547.83 118.176 403.786 66.9794C331.799 41.3934 263.669 24.8953 213.534 14.794C188.468 9.74356 167.903 6.29271 153.606 4.10473C146.458 3.01076 140.877 2.23253 137.085 1.72794C135.189 1.47565 133.74 1.29177 132.765 1.17105C132.278 1.11068 131.91 1.06611 131.663 1.03666L131.386 1.00376L131.316 0.99567L131.299 0.993685C131.296 0.993261 131.294 0.993064 131.408 -0.00035882C131.523 -0.993782 131.525 -0.993526 131.529 -0.993043L131.547 -0.990938L131.619 -0.9826L131.901 -0.949201C132.15 -0.91942 132.521 -0.874497 133.011 -0.813775C133.991 -0.692332 135.446 -0.507692 137.349 -0.254587C141.153 0.251619 146.747 1.03169 153.909 2.12775C168.232 4.31986 188.829 7.77603 213.929 12.8334C264.129 22.9477 332.355 39.4684 404.456 65.0949C548.587 116.323 708.503 204.045 770.529 350.009C835.464 502.72 994.681 596.966 1137.9 653.043C1209.48 681.071 1277 699.539 1326.62 711C1351.44 716.731 1371.77 720.709 1385.9 723.254C1392.97 724.526 1398.48 725.441 1402.23 726.037C1404.1 726.335 1405.53 726.553 1406.5 726.697C1406.98 726.769 1407.34 726.822 1407.58 726.857C1407.7 726.875 1407.8 726.888 1407.86 726.897L1407.93 726.906L1407.94 726.909C1407.95 726.909 1407.95 726.909 1407.81 727.9C1407.67 728.89 1407.67 728.89 1407.66 728.889L1407.65 728.887L1407.57 728.877C1407.51 728.868 1407.42 728.854 1407.3 728.836C1407.05 728.801 1406.68 728.747 1406.2 728.675C1405.23 728.53 1403.79 728.311 1401.91 728.012C1398.16 727.414 1392.63 726.497 1385.55 725.222C1371.39 722.672 1351.02 718.687 1326.17 712.949C1276.48 701.473 1208.86 682.978 1137.17 654.906C993.836 598.783 833.953 504.279 768.688 350.791ZM455.448 63.8041C592.079 112.501 743.063 195.654 801.588 333.49L802.508 333.1L801.588 333.491C863.503 479.278 1015.16 569.108 1151.11 622.48C1219.11 649.178 1283.24 666.779 1330.37 677.705C1353.94 683.169 1373.26 686.964 1386.69 689.394C1393.4 690.609 1398.64 691.482 1402.21 692.052C1403.99 692.337 1405.36 692.547 1406.27 692.685C1406.73 692.754 1407.08 692.805 1407.31 692.839C1407.43 692.856 1407.52 692.869 1407.58 692.877L1407.65 692.887L1407.66 692.889C1407.67 692.89 1407.67 692.89 1407.81 691.9C1407.95 690.909 1407.95 690.909 1407.94 690.909L1407.93 690.906L1407.86 690.897L1407.6 690.86C1407.37 690.826 1407.03 690.775 1406.57 690.707C1405.66 690.57 1404.3 690.362 1402.53 690.078C1398.97 689.51 1393.74 688.638 1387.04 687.426C1373.64 685.001 1354.35 681.212 1330.82 675.757C1283.76 664.846 1219.72 647.271 1151.84 620.619C1016.01 567.292 865.014 477.721 803.429 332.709C744.553 194.046 592.838 110.648 456.119 61.9202C387.725 37.5436 323.008 21.8166 275.391 12.1836C251.582 7.3668 232.045 4.07311 218.458 1.98334C211.665 0.938438 206.359 0.194495 202.75 -0.288377C200.946 -0.529814 199.565 -0.705985 198.636 -0.821877C198.171 -0.879823 197.818 -0.922699 197.582 -0.951128L197.315 -0.983015L197.247 -0.990979L197.23 -0.992991C197.226 -0.993454 197.224 -0.9937 197.108 -0.00035882C196.993 0.992982 196.995 0.993168 196.998 0.993571L197.014 0.995462L197.08 1.00318L197.343 1.03457C197.577 1.06266 197.926 1.10518 198.388 1.16277C199.312 1.27794 200.687 1.45334 202.485 1.69396C206.082 2.1752 211.375 2.91729 218.154 3.96009C231.714 6.04571 251.219 9.33405 274.995 14.1438C322.547 23.7639 387.167 39.4681 455.448 63.8041ZM834.388 316.29C779.063 185.753 636.302 106.9 507.097 60.6787C442.529 37.5803 381.421 22.6574 336.453 13.5093C313.97 8.93541 295.525 5.80569 282.702 3.81969C276.291 2.82671 271.286 2.11968 267.885 1.66106C266.184 1.43175 264.885 1.26454 264.011 1.15474C263.574 1.09984 263.244 1.05929 263.023 1.0325L262.774 1.00258L262.712 0.995224L262.697 0.993423C262.694 0.993041 262.692 0.992865 262.808 -0.00035882C262.925 -0.993583 262.927 -0.993346 262.93 -0.992903L262.947 -0.99098L263.011 -0.983376L263.264 -0.952946C263.487 -0.925821 263.821 -0.884919 264.26 -0.829654C265.14 -0.719124 266.445 -0.55114 268.152 -0.321004C271.565 0.139268 276.584 0.848159 283.008 1.84326C295.858 3.83344 314.334 6.96856 336.852 11.5494C381.884 20.7106 443.088 35.6565 507.77 58.7956C637.065 105.049 780.554 184.147 836.229 315.509C894.465 452.771 1037.26 537.642 1165.72 588.207C1229.93 613.478 1290.49 630.155 1335.01 640.515C1357.26 645.694 1375.5 649.294 1388.18 651.598C1394.52 652.75 1399.46 653.578 1402.82 654.119C1404.5 654.389 1405.78 654.586 1406.65 654.717C1407.08 654.782 1407.4 654.83 1407.62 654.862C1407.73 654.878 1407.81 654.89 1407.87 654.898L1407.93 654.907L1407.94 654.909C1407.95 654.909 1407.95 654.91 1407.81 655.9C1407.67 656.89 1407.67 656.889 1407.66 656.889L1407.65 656.887L1407.58 656.878C1407.53 656.869 1407.44 656.857 1407.33 656.841C1407.11 656.809 1406.78 656.76 1406.35 656.694C1405.48 656.563 1404.19 656.364 1402.5 656.093C1399.13 655.551 1394.17 654.72 1387.82 653.566C1375.12 651.256 1356.84 647.65 1334.55 642.463C1289.97 632.088 1229.31 615.384 1164.99 590.068C1036.41 539.457 892.952 454.328 834.388 316.29L835.308 315.9L834.388 316.29ZM558.708 57.4909C680.526 101.2 815.112 175.702 867.288 298.89C922.502 429.277 1057.73 509.732 1178.93 557.58C1239.55 581.515 1296.73 597.316 1338.75 607.133C1359.76 612.042 1376.99 615.455 1388.96 617.642C1394.95 618.735 1399.62 619.521 1402.8 620.035C1404.39 620.292 1405.6 620.48 1406.42 620.604C1406.83 620.667 1407.14 620.713 1407.35 620.744L1407.59 620.778L1407.65 620.787L1407.66 620.789C1407.67 620.789 1407.67 620.79 1407.81 619.8C1407.95 618.81 1407.95 618.809 1407.95 618.809L1407.93 618.807L1407.87 618.799L1407.64 618.765C1407.44 618.735 1407.13 618.689 1406.72 618.627C1405.91 618.504 1404.7 618.316 1403.12 618.06C1399.95 617.549 1395.29 616.765 1389.32 615.674C1377.37 613.493 1360.18 610.086 1339.21 605.185C1297.25 595.384 1240.17 579.609 1179.66 555.719C1058.58 507.918 924.015 427.722 869.129 298.11C816.605 174.097 681.291 99.3494 559.384 55.6084C498.396 33.7255 440.688 19.5765 398.229 10.898C376.999 6.55857 359.578 3.58633 347.463 1.69867C341.405 0.754834 336.673 0.0821184 333.455 -0.354795C331.846 -0.573253 330.615 -0.732762 329.785 -0.837737C329.371 -0.890225 329.056 -0.929079 328.845 -0.954853L328.607 -0.98377L328.547 -0.991L328.531 -0.992831C328.527 -0.993254 328.526 -0.99348 328.408 -0.00035882C328.291 0.992762 328.293 0.992927 328.296 0.993289L328.31 0.994996L328.369 1.00198L328.603 1.03038C328.811 1.05581 329.122 1.09431 329.534 1.14643C330.358 1.25067 331.583 1.4094 333.186 1.62703C336.392 2.06228 341.111 2.73312 347.155 3.67483C359.243 5.55827 376.632 8.52509 397.828 12.8575C440.223 21.5228 497.834 35.6488 558.708 57.4909ZM900.187 281.689C851.162 165.751 724.774 95.5492 610.37 54.3279C553.201 33.7297 499.1 20.3944 459.288 12.2088C439.384 8.11629 423.054 5.3116 411.703 3.53032C406.027 2.6397 401.596 2.00495 398.586 1.59302C397.08 1.38706 395.93 1.2368 395.157 1.13811C394.77 1.08877 394.478 1.05232 394.283 1.02825L394.063 1.00136L394.008 0.99475L393.995 0.993137C393.992 0.992796 393.99 0.992642 394.108 -0.00035882C394.227 -0.993359 394.228 -0.993143 394.232 -0.99274L394.246 -0.991003L394.303 -0.984146L394.527 -0.956739C394.725 -0.932317 395.021 -0.895508 395.41 -0.845794C396.189 -0.746366 397.345 -0.595319 398.857 -0.388515C401.88 0.0250908 406.323 0.661731 412.013 1.5545C423.391 3.34003 439.752 6.15018 459.691 10.2498C499.567 18.4486 553.766 31.8071 611.047 52.4463C725.542 93.7001 852.655 164.148 902.03 280.91C953.566 402.773 1079.91 478.268 1193.6 523.307C1250.42 545.816 1304.01 560.693 1343.41 569.943C1363.1 574.568 1379.24 577.785 1390.46 579.846C1396.07 580.877 1400.44 581.618 1403.41 582.102C1404.9 582.343 1406.04 582.521 1406.8 582.637C1407.18 582.696 1407.47 582.739 1407.66 582.767L1407.88 582.799L1407.93 582.807L1407.95 582.809C1407.95 582.81 1407.95 582.81 1407.81 583.8C1407.67 584.789 1407.66 584.789 1407.66 584.789L1407.65 584.787L1407.59 584.778L1407.37 584.746C1407.17 584.717 1406.88 584.673 1406.5 584.614C1405.73 584.497 1404.59 584.318 1403.09 584.076C1400.11 583.59 1395.72 582.846 1390.1 581.813C1378.85 579.747 1362.68 576.523 1342.95 571.89C1303.49 562.625 1249.8 547.721 1192.87 525.167C1079.06 480.081 952.051 404.326 900.187 281.689ZM662.018 51.1899C768.998 89.9235 887.161 155.8 932.987 264.388C981.5 379.325 1100.3 450.405 1206.75 492.741C1260 513.92 1310.22 527.931 1347.13 536.646C1365.58 541.004 1380.71 544.039 1391.23 545.985C1396.49 546.958 1400.59 547.659 1403.39 548.116C1404.78 548.345 1405.85 548.513 1406.57 548.624C1406.93 548.68 1407.2 548.721 1407.39 548.748L1407.59 548.779L1407.65 548.787L1407.66 548.789C1407.66 548.789 1407.66 548.789 1407.81 547.8C1407.95 546.81 1407.95 546.81 1407.95 546.809L1407.94 546.808L1407.89 546.8L1407.68 546.77C1407.5 546.743 1407.23 546.702 1406.88 546.647C1406.16 546.537 1405.1 546.37 1403.71 546.143C1400.93 545.687 1396.84 544.989 1391.59 544.018C1381.1 542.078 1366.01 539.05 1347.59 534.7C1310.75 526 1260.63 512.016 1207.49 490.883C1101.16 448.594 983.017 377.774 934.83 263.611C888.656 154.2 769.769 88.0758 662.699 49.3094C609.129 29.9138 558.444 17.3396 521.152 9.61418C502.505 5.75124 487.204 3.10004 476.563 1.4143C471.242 0.57142 467.086 -0.0301232 464.259 -0.421107C462.846 -0.6166 461.764 -0.759454 461.035 -0.853519C460.671 -0.900551 460.395 -0.935386 460.209 -0.958504L460 -0.984454L459.946 -0.990951L459.933 -0.9926C459.93 -0.992983 459.928 -0.99319 459.808 -0.00035882C459.689 0.992472 459.69 0.992617 459.693 0.992937L459.705 0.99446L459.757 1.0007L459.962 1.02613C460.145 1.0489 460.418 1.08337 460.779 1.13002C461.502 1.22334 462.578 1.36539 463.985 1.56004C466.8 1.94933 470.943 2.54896 476.25 3.38967C486.864 5.07111 502.134 7.71679 520.746 11.5726C557.973 19.2847 608.562 31.8355 662.018 51.1899ZM713.679 48.0144C813.246 84.2477 923.21 145.798 965.887 247.088C1011.05 354.324 1121.63 420.704 1220.69 460.266C1270.24 480.057 1316.98 493.162 1351.33 501.318C1368.5 505.396 1382.58 508.238 1392.37 510.061C1397.26 510.972 1401.08 511.629 1403.68 512.058C1404.98 512.272 1405.98 512.43 1406.65 512.534C1406.98 512.586 1407.23 512.625 1407.4 512.651L1407.6 512.679L1407.65 512.687L1407.66 512.688C1407.66 512.689 1407.66 512.689 1407.81 511.7C1407.95 510.71 1407.95 510.71 1407.95 510.71L1407.94 510.708L1407.89 510.701L1407.7 510.673C1407.54 510.648 1407.28 510.609 1406.95 510.558C1406.29 510.455 1405.3 510.298 1404.01 510.085C1401.42 509.658 1397.61 509.004 1392.73 508.095C1382.97 506.277 1368.93 503.442 1351.79 499.372C1317.51 491.232 1270.87 478.154 1221.43 458.408C1122.49 418.895 1012.57 352.776 967.73 246.311L966.809 246.7L967.73 246.311C924.707 144.201 814.021 82.4016 714.363 46.1349C664.5 27.9892 617.323 16.2087 582.614 8.96449C565.259 5.34214 551.018 2.85341 541.113 1.26999C536.161 0.478272 532.293 -0.0871487 529.661 -0.454802C528.345 -0.63863 527.339 -0.773018 526.661 -0.861533C526.321 -0.90579 526.064 -0.93858 525.892 -0.960347L525.696 -0.984786L525.647 -0.99091L525.634 -0.992467C525.631 -0.99283 525.629 -0.993027 525.508 -0.00035882C525.388 0.992309 525.389 0.992443 525.391 0.992742L525.403 0.994171L525.45 1.00004L525.641 1.02395C525.811 1.04536 526.065 1.07778 526.402 1.12166C527.074 1.20941 528.075 1.34299 529.385 1.52596C532.004 1.8919 535.859 2.45539 540.798 3.24491C550.675 4.82399 564.885 7.30715 582.206 10.9223C616.85 18.1531 663.93 29.9101 713.679 48.0144Z" fill="url(#paint0_linear_233_938)"/>
<defs>
<linearGradient id="paint0_linear_233_938" x1="480" y1="85.9996" x2="1039" y2="669" gradientUnits="userSpaceOnUse">
<stop offset="0.398582" stop-color="#F7F2EB"/>
<stop offset="1" stop-color="#F7F2EB" stop-opacity="0"/>
</linearGradient>
</defs>
</svg>
